<svg width="80" height="92" viewBox="0 0 80 92" fill="none" xmlns="http://www.w3.org/2000/svg">
<path d="M66.0183 17.2895L50.8274 2.09799C49.4354 0.705761 47.994 0 46.5438 0C44.3312 0 42.0978 1.76708 42.0978 5.71398V9.89137C20.5299 11.1648 2.67508 27.7166 0.0214144 49.3872C-0.0507665 49.9758 0.0743827 50.5718 0.377252 51.0817C0.680121 51.5916 1.1436 51.9866 1.69505 52.2049C2.24651 52.4233 2.85486 52.4526 3.42476 52.2881C3.99465 52.1237 4.49387 51.7748 4.84417 51.2961C11.9618 41.5709 23.39 35.7648 35.4142 35.7648C37.6428 35.7648 39.8824 35.9658 42.0976 36.3637V40.9631C42.0976 42.4239 42.3901 43.6494 42.9653 44.6043C43.7595 45.922 45.0633 46.6771 46.5436 46.6771C47.9939 46.6771 49.4352 45.9708 50.8276 44.5791L66.0185 29.3877C69.3538 26.0522 69.3536 20.6243 66.0183 17.2895Z" fill="#00D8E0"/>
<path d="M78.3064 39.276C77.7548 39.0579 77.1465 39.0288 76.5766 39.1934C76.0068 39.3579 75.5076 39.7069 75.1573 40.1855C68.0396 49.91 56.6115 55.7162 44.5873 55.7162C42.3461 55.7148 40.1095 55.5144 37.9038 55.1173V50.5178C37.9038 46.5709 35.6711 44.8039 33.4579 44.8039C32.0076 44.8039 30.5662 45.5102 29.1745 46.9026L13.9832 62.0934C10.6477 65.4287 10.6477 70.8559 13.9832 74.1921L29.1745 89.3829C30.5664 90.7752 32.0076 91.4809 33.4579 91.4809C35.6711 91.4809 37.9038 89.7138 37.9038 85.7669V81.5895C59.4724 80.316 77.3271 63.7642 79.98 42.0944C80.0523 41.5057 79.9272 40.9096 79.6243 40.3995C79.3215 39.8895 78.8579 39.4944 78.3064 39.276Z" fill="#54E360"/>
<path d="M42.0976 40.9631C42.0976 42.4237 42.3901 43.6494 42.9653 44.6043C43.7595 45.922 45.0633 46.6771 46.5436 46.6771C47.9939 46.6771 49.4352 45.9708 50.8276 44.5791L66.0185 29.3877C69.3538 26.0522 69.3538 20.625 66.0185 17.2895L50.8276 2.09799C49.4352 0.705761 47.9939 0 46.5436 0C44.3311 0 42.0976 1.76708 42.0976 5.71398V9.89137C41.3949 9.93318 40.6956 9.99179 40.0004 10.0658V36.0488C40.7011 36.1353 41.4012 36.2386 42.0976 36.3637V40.9631Z" fill="#00ACB3"/>
<path d="M78.3064 39.276C77.7548 39.0579 77.1465 39.0288 76.5766 39.1934C76.0068 39.3579 75.5076 39.7069 75.1573 40.1855C68.0396 49.91 56.6115 55.7162 44.5873 55.7162C43.0601 55.7162 41.5275 55.6192 40.0004 55.4321V81.4152C60.6198 79.2307 77.4128 63.0579 79.98 42.0944C80.0523 41.5057 79.9272 40.9096 79.6243 40.3995C79.3215 39.8895 78.8579 39.4944 78.3064 39.276Z" fill="#00AB5E"/>
</svg>
